<svg width="231" height="231" viewBox="0 0 231 231" fill="none" xmlns="http://www.w3.org/2000/svg">
<g filter="url(#filter0_d_5_35)">
<rect x="4" width="223" height="223" fill="#121212"/>
<path d="M143.062 113.58V113.707L143.122 113.819C144.048 115.524 144.575 117.475 144.575 119.547C144.575 126.181 139.177 131.579 132.541 131.579C125.905 131.579 120.507 126.181 120.507 119.547C120.507 112.912 125.905 107.513 132.541 107.513C135.083 107.513 137.44 108.312 139.387 109.663L140.172 110.208V109.252V84.9805V84.423L139.618 84.4834L109.797 87.7326L109.351 87.7812V88.2297V124.881H109.11L109.251 125.494C109.452 126.365 109.568 127.264 109.568 128.19C109.568 134.824 104.17 140.225 97.5339 140.225C90.8981 140.225 85.5 134.824 85.5 128.19C85.5 121.555 90.898 116.157 97.5338 116.158H97.5339C100.649 116.158 103.483 117.358 105.625 119.31L106.462 120.072V118.94V87.7811C106.462 86.3289 107.598 85.0637 109.04 84.9071L109.041 84.9071L140.17 81.5154C140.17 81.5154 140.17 81.5153 140.17 81.5153C140.925 81.4353 141.665 81.6713 142.204 82.157L142.205 82.1581C142.746 82.6429 143.062 83.3542 143.062 84.1079V113.58ZM88.3897 128.19C88.3897 133.232 92.4915 137.335 97.5339 137.335C102.578 137.335 106.678 133.232 106.678 128.19C106.678 123.147 102.576 119.047 97.5339 119.047C92.4917 119.047 88.3897 123.147 88.3897 128.19ZM123.397 119.547C123.397 124.589 127.499 128.69 132.541 128.69C137.585 128.69 141.685 124.589 141.685 119.547C141.685 114.505 137.583 110.401 132.541 110.401C127.499 110.401 123.397 114.505 123.397 119.547Z" fill="#B3B3B3" stroke="black"/>
</g>
<defs>
<filter id="filter0_d_5_35" x="0" y="0" width="231" height="231" filterUnits="userSpaceOnUse" color-interpolation-filters="sRGB">
<feFlood flood-opacity="0" result="BackgroundImageFix"/>
<feColorMatrix in="SourceAlpha" type="matrix" values="0 0 0 0 0 0 0 0 0 0 0 0 0 0 0 0 0 0 127 0" result="hardAlpha"/>
<feOffset dy="4"/>
<feGaussianBlur stdDeviation="2"/>
<feComposite in2="hardAlpha" operator="out"/>
<feColorMatrix type="matrix" values="0 0 0 0 0 0 0 0 0 0 0 0 0 0 0 0 0 0 0.25 0"/>
<feBlend mode="normal" in2="BackgroundImageFix" result="effect1_dropShadow_5_35"/>
<feBlend mode="normal" in="SourceGraphic" in2="effect1_dropShadow_5_35" result="shape"/>
</filter>
</defs>
</svg>
