<svg width="199" height="199" viewBox="0 0 199 199" fill="none" xmlns="http://www.w3.org/2000/svg">
<g filter="url(#filter0_d_5_33)">
<rect x="4" width="191" height="191" fill="#121212"/>
<path d="M114.25 88.46C108.33 88.46 103.515 93.2763 103.515 99.1953C103.515 105.114 108.33 109.929 114.25 109.929C120.17 109.929 124.985 105.114 124.985 99.1953C124.985 97.3474 124.515 95.6061 123.689 94.0847V68.8417C123.689 68.0777 123.369 67.3514 122.813 66.8528C122.258 66.352 121.501 66.1143 120.738 66.1954L94.0752 69.1005C92.6226 69.2582 91.4844 70.5253 91.4844 71.9878V98.6756C89.5754 96.9365 87.0468 95.8649 84.2661 95.8649C78.3459 95.8637 73.5308 100.679 73.5308 106.598C73.5308 112.517 78.3459 117.334 84.2661 117.334C90.1862 117.334 95.0013 112.517 95.0013 106.598C95.0013 105.769 94.8981 104.967 94.7193 104.193H94.8159V72.372L120.358 69.5891V90.3778C118.622 89.1729 116.519 88.46 114.25 88.46ZM84.2661 114.003C80.1838 114.003 76.8623 110.68 76.8623 106.598C76.8623 102.516 80.1838 99.1953 84.2661 99.1953C88.3483 99.1953 91.6698 102.516 91.6698 106.598C91.6698 110.68 88.3494 114.003 84.2661 114.003ZM114.25 106.598C110.168 106.598 106.846 103.278 106.846 99.1953C106.846 95.113 110.168 91.7904 114.25 91.7904C118.332 91.7904 121.654 95.113 121.654 99.1953C121.654 103.278 118.333 106.598 114.25 106.598Z" fill="#B3B3B3"/>
</g>
<defs>
<filter id="filter0_d_5_33" x="0" y="0" width="199" height="199" filterUnits="userSpaceOnUse" color-interpolation-filters="sRGB">
<feFlood flood-opacity="0" result="BackgroundImageFix"/>
<feColorMatrix in="SourceAlpha" type="matrix" values="0 0 0 0 0 0 0 0 0 0 0 0 0 0 0 0 0 0 127 0" result="hardAlpha"/>
<feOffset dy="4"/>
<feGaussianBlur stdDeviation="2"/>
<feComposite in2="hardAlpha" operator="out"/>
<feColorMatrix type="matrix" values="0 0 0 0 0 0 0 0 0 0 0 0 0 0 0 0 0 0 0.25 0"/>
<feBlend mode="normal" in2="BackgroundImageFix" result="effect1_dropShadow_5_33"/>
<feBlend mode="normal" in="SourceGraphic" in2="effect1_dropShadow_5_33" result="shape"/>
</filter>
</defs>
</svg>
