<svg width="205" height="49" viewBox="0 0 205 49" fill="none" xmlns="http://www.w3.org/2000/svg">
<circle cx="24.5" cy="24.5" r="24.5" fill="black"/>
<rect x="24.3309" y="9.23865" width="4.01325" height="27.7736" rx="2.00662" transform="rotate(43.5132 24.3309 9.23865)" fill="white"/>
<rect x="28.5255" y="12.4028" width="4.01325" height="28.078" rx="2.00662" transform="rotate(43.5132 28.5255 12.4028)" fill="white"/>
<rect x="44.6046" y="28.6342" width="4.01325" height="17.7221" rx="2.00662" transform="rotate(133.513 44.6046 28.6342)" fill="white"/>
<rect x="40.0267" y="31.4873" width="4.01325" height="16.6216" rx="2.00662" transform="rotate(133.513 40.0267 31.4873)" fill="white"/>
<rect x="32.3008" y="32.006" width="4.01325" height="11.5953" rx="2.00662" transform="rotate(133.513 32.3008 32.006)" fill="white"/>
<path d="M65.9858 22.5653C65.9176 21.8778 65.625 21.3437 65.108 20.9631C64.5909 20.5824 63.8892 20.392 63.0028 20.392C62.4006 20.392 61.892 20.4773 61.4773 20.6477C61.0625 20.8125 60.7443 21.0426 60.5227 21.3381C60.3068 21.6335 60.1989 21.9688 60.1989 22.3438C60.1875 22.6562 60.2528 22.929 60.3949 23.1619C60.5426 23.3949 60.7443 23.5966 61 23.767C61.2557 23.9318 61.5511 24.0767 61.8864 24.2017C62.2216 24.321 62.5795 24.4233 62.9602 24.5085L64.5284 24.8835C65.2898 25.054 65.9886 25.2812 66.625 25.5653C67.2614 25.8494 67.8125 26.1989 68.2784 26.6136C68.7443 27.0284 69.1051 27.517 69.3608 28.0795C69.6222 28.642 69.7557 29.2869 69.7614 30.0142C69.7557 31.0824 69.483 32.0085 68.9432 32.7926C68.4091 33.571 67.6364 34.1761 66.625 34.608C65.6193 35.0341 64.4063 35.2472 62.9858 35.2472C61.5767 35.2472 60.3494 35.0312 59.304 34.5994C58.2642 34.1676 57.4517 33.5284 56.8665 32.6818C56.2869 31.8295 55.983 30.7756 55.9545 29.5199H59.5256C59.5653 30.1051 59.733 30.5937 60.0284 30.9858C60.3295 31.3722 60.7301 31.6648 61.2301 31.8636C61.7358 32.0568 62.3068 32.1534 62.9432 32.1534C63.5682 32.1534 64.1108 32.0625 64.571 31.8807C65.0369 31.6989 65.3977 31.446 65.6534 31.1222C65.9091 30.7983 66.0369 30.4261 66.0369 30.0057C66.0369 29.6136 65.9205 29.2841 65.6875 29.017C65.4602 28.75 65.125 28.5227 64.6818 28.3352C64.2443 28.1477 63.7074 27.9773 63.071 27.8239L61.1705 27.3466C59.6989 26.9886 58.5369 26.429 57.6847 25.6676C56.8324 24.9062 56.4091 23.8807 56.4148 22.5909C56.4091 21.5341 56.6903 20.6108 57.2585 19.821C57.8324 19.0312 58.6193 18.4148 59.6193 17.9716C60.6193 17.5284 61.7557 17.3068 63.0284 17.3068C64.3239 17.3068 65.4545 17.5284 66.4205 17.9716C67.392 18.4148 68.1477 19.0312 68.6875 19.821C69.2273 20.6108 69.5057 21.5256 69.5227 22.5653H65.9858ZM78.0902 35.2557C76.7663 35.2557 75.6214 34.9744 74.6555 34.4119C73.6953 33.8437 72.9538 33.054 72.4311 32.0426C71.9084 31.0256 71.647 29.8466 71.647 28.5057C71.647 27.1534 71.9084 25.9716 72.4311 24.9602C72.9538 23.9432 73.6953 23.1534 74.6555 22.5909C75.6214 22.0227 76.7663 21.7386 78.0902 21.7386C79.4141 21.7386 80.5561 22.0227 81.5163 22.5909C82.4822 23.1534 83.2266 23.9432 83.7493 24.9602C84.272 25.9716 84.5334 27.1534 84.5334 28.5057C84.5334 29.8466 84.272 31.0256 83.7493 32.0426C83.2266 33.054 82.4822 33.8437 81.5163 34.4119C80.5561 34.9744 79.4141 35.2557 78.0902 35.2557ZM78.1072 32.4432C78.7095 32.4432 79.2124 32.2727 79.6158 31.9318C80.0192 31.5852 80.3232 31.1136 80.5277 30.517C80.7379 29.9205 80.843 29.2415 80.843 28.4801C80.843 27.7188 80.7379 27.0398 80.5277 26.4432C80.3232 25.8466 80.0192 25.375 79.6158 25.0284C79.2124 24.6818 78.7095 24.5085 78.1072 24.5085C77.4993 24.5085 76.9879 24.6818 76.5732 25.0284C76.1641 25.375 75.8544 25.8466 75.6442 26.4432C75.4396 27.0398 75.3374 27.7188 75.3374 28.4801C75.3374 29.2415 75.4396 29.9205 75.6442 30.517C75.8544 31.1136 76.1641 31.5852 76.5732 31.9318C76.9879 32.2727 77.4993 32.4432 78.1072 32.4432ZM95.2891 29.4261V21.9091H98.9197V35H95.4339V32.6222H95.2976C95.0021 33.3892 94.5107 34.0057 93.8232 34.4716C93.1413 34.9375 92.3089 35.1705 91.326 35.1705C90.451 35.1705 89.6811 34.9716 89.0163 34.5739C88.3516 34.1761 87.8317 33.6108 87.4567 32.8778C87.0874 32.1449 86.8999 31.267 86.8942 30.2443V21.9091H90.5249V29.5966C90.5305 30.3693 90.7379 30.9801 91.147 31.429C91.5561 31.8778 92.1044 32.1023 92.7919 32.1023C93.2294 32.1023 93.6385 32.0028 94.0192 31.804C94.3999 31.5994 94.7067 31.2983 94.9396 30.9006C95.1783 30.5028 95.2947 30.0114 95.2891 29.4261ZM105.455 27.4318V35H101.824V21.9091H105.284V24.2188H105.438C105.727 23.4574 106.213 22.8551 106.895 22.4119C107.577 21.9631 108.403 21.7386 109.375 21.7386C110.284 21.7386 111.077 21.9375 111.753 22.3352C112.429 22.733 112.955 23.3011 113.33 24.0398C113.705 24.7727 113.892 25.6477 113.892 26.6648V35H110.261V27.3125C110.267 26.5114 110.063 25.8864 109.648 25.4375C109.233 24.983 108.662 24.7557 107.935 24.7557C107.446 24.7557 107.014 24.8608 106.639 25.071C106.27 25.2812 105.98 25.5881 105.77 25.9915C105.565 26.3892 105.46 26.8693 105.455 27.4318ZM121.577 35.2131C120.583 35.2131 119.683 34.9574 118.876 34.446C118.075 33.929 117.438 33.1705 116.967 32.1705C116.501 31.1648 116.268 29.9318 116.268 28.4716C116.268 26.9716 116.509 25.7244 116.992 24.7301C117.475 23.7301 118.117 22.983 118.918 22.4886C119.725 21.9886 120.609 21.7386 121.569 21.7386C122.302 21.7386 122.913 21.8636 123.401 22.1136C123.896 22.358 124.293 22.6648 124.594 23.0341C124.901 23.3977 125.134 23.7557 125.293 24.108H125.404V17.5455H129.026V35H125.447V32.9034H125.293C125.123 33.267 124.881 33.6278 124.569 33.9858C124.262 34.3381 123.862 34.6307 123.367 34.8636C122.879 35.0966 122.282 35.2131 121.577 35.2131ZM122.728 32.3239C123.313 32.3239 123.808 32.1648 124.211 31.8466C124.62 31.5227 124.933 31.071 125.148 30.4915C125.37 29.9119 125.481 29.233 125.481 28.4545C125.481 27.6761 125.373 27 125.157 26.4261C124.941 25.8523 124.629 25.4091 124.219 25.0966C123.81 24.7841 123.313 24.6278 122.728 24.6278C122.131 24.6278 121.629 24.7898 121.219 25.1136C120.81 25.4375 120.501 25.8864 120.29 26.4602C120.08 27.0341 119.975 27.6989 119.975 28.4545C119.975 29.2159 120.08 29.8892 120.29 30.4744C120.506 31.054 120.816 31.5085 121.219 31.8381C121.629 32.1619 122.131 32.3239 122.728 32.3239ZM136.009 35L131.014 17.5455H135.045L137.935 29.6733H138.08L141.267 17.5455H144.719L147.898 29.6989H148.051L150.94 17.5455H154.972L149.977 35H146.381L143.057 23.5881H142.92L139.605 35H136.009ZM159.205 35.2472C158.37 35.2472 157.626 35.1023 156.972 34.8125C156.319 34.517 155.802 34.0824 155.421 33.5085C155.046 32.929 154.859 32.2074 154.859 31.3438C154.859 30.6165 154.992 30.0057 155.259 29.5114C155.526 29.017 155.89 28.6193 156.35 28.3182C156.81 28.017 157.333 27.7898 157.918 27.6364C158.509 27.483 159.129 27.375 159.776 27.3125C160.538 27.233 161.151 27.1591 161.617 27.0909C162.083 27.017 162.421 26.9091 162.631 26.767C162.842 26.625 162.947 26.4148 162.947 26.1364V26.0852C162.947 25.5455 162.776 25.1278 162.435 24.8324C162.1 24.5369 161.623 24.3892 161.004 24.3892C160.35 24.3892 159.83 24.5341 159.444 24.8239C159.058 25.108 158.802 25.4659 158.677 25.8977L155.319 25.625C155.489 24.8295 155.825 24.142 156.325 23.5625C156.825 22.9773 157.469 22.5284 158.259 22.2159C159.055 21.8977 159.975 21.7386 161.021 21.7386C161.748 21.7386 162.444 21.8239 163.109 21.9943C163.779 22.1648 164.373 22.429 164.89 22.7869C165.413 23.1449 165.825 23.6051 166.126 24.1676C166.427 24.7244 166.577 25.392 166.577 26.1705V35H163.134V33.1847H163.032C162.822 33.5938 162.54 33.9545 162.188 34.267C161.836 34.5739 161.413 34.8153 160.918 34.9915C160.424 35.1619 159.853 35.2472 159.205 35.2472ZM160.245 32.7415C160.779 32.7415 161.251 32.6364 161.66 32.4261C162.069 32.2102 162.39 31.9205 162.623 31.5568C162.856 31.1932 162.972 30.7812 162.972 30.321V28.9318C162.859 29.0057 162.702 29.0739 162.504 29.1364C162.31 29.1932 162.092 29.2472 161.847 29.2983C161.603 29.3437 161.359 29.3864 161.114 29.4261C160.87 29.4602 160.648 29.4915 160.45 29.5199C160.023 29.5824 159.651 29.6818 159.333 29.8182C159.015 29.9545 158.768 30.1392 158.592 30.3722C158.415 30.5994 158.327 30.8835 158.327 31.2244C158.327 31.7188 158.506 32.0966 158.864 32.358C159.228 32.6136 159.688 32.7415 160.245 32.7415ZM181.13 21.9091L176.553 35H172.462L167.886 21.9091H171.721L174.44 31.2756H174.576L177.286 21.9091H181.13ZM188.532 35.2557C187.185 35.2557 186.026 34.983 185.055 34.4375C184.089 33.8864 183.344 33.108 182.822 32.1023C182.299 31.0909 182.038 29.8949 182.038 28.5142C182.038 27.1676 182.299 25.9858 182.822 24.9688C183.344 23.9517 184.08 23.1591 185.029 22.5909C185.984 22.0227 187.103 21.7386 188.387 21.7386C189.251 21.7386 190.055 21.8778 190.799 22.1562C191.549 22.429 192.202 22.8409 192.759 23.392C193.322 23.9432 193.759 24.6364 194.072 25.4716C194.384 26.3011 194.54 27.2727 194.54 28.3864V29.3835H183.487V27.1335H191.123C191.123 26.6108 191.009 26.1477 190.782 25.7443C190.555 25.3409 190.239 25.0256 189.836 24.7983C189.438 24.5653 188.975 24.4489 188.447 24.4489C187.896 24.4489 187.407 24.5767 186.981 24.8324C186.56 25.0824 186.231 25.4205 185.992 25.8466C185.754 26.267 185.631 26.7358 185.626 27.2528V29.392C185.626 30.0398 185.745 30.5994 185.984 31.071C186.228 31.5426 186.572 31.9062 187.015 32.1619C187.458 32.4176 187.984 32.5455 188.592 32.5455C188.995 32.5455 189.364 32.4886 189.7 32.375C190.035 32.2614 190.322 32.0909 190.56 31.8636C190.799 31.6364 190.981 31.358 191.106 31.0284L194.464 31.25C194.293 32.0568 193.944 32.7614 193.415 33.3636C192.893 33.9602 192.217 34.4261 191.387 34.7614C190.563 35.0909 189.612 35.2557 188.532 35.2557Z" fill="black"/>
</svg>
